# xmcd
#
# Track frame offsets: 
#        150
#        12415
#        22002
#        33567
#        44550
#        57815
#        70272
#        82805
#        93460
#        105240
#        117077
#        128860
#        139737
#        152745
#        164637
#        178042
#        190555
#        203612
#        213582
#        225215
#
# Disc length: 3166 seconds
#
# Revision: 0
# Processed by: cddbd v1.4PL0 Copyright (c) Steve Scherf et al.
# Submitted via: ExactAudioCopy v0.90b4
#
DISCID=070c5c14
DTITLE=Gerry Butler - The Ice Man
DYEAR=1995
DGENRE=Soul
TTITLE0=For your precious love
TTITLE1=Sweet was the wine
TTITLE2=Come back my love
TTITLE3=Lost
TTITLE4=A lonely soldier
TTITLE5=He will break your heart
TTITLE6=Find another girl
TTITLE7=I'm A telling you
TTITLE8=Moon river
TTITLE9=Make it easier on yourself
TTITLE10=You can run (but u can't hide)
TTITLE11=Whatever you want
TTITLE12=Need to belong
TTITLE13=Giving up on love
TTITLE14=I stand accused
TTITLE15=Let it be me
TTITLE16=Smile
TTITLE17=Good times
TTITLE18=Just for you
TTITLE19=For your precious love (recut)
EXTD=
EXTT0=
EXTT1=
EXTT2=
EXTT3=
EXTT4=
EXTT5=
EXTT6=
EXTT7=
EXTT8=
EXTT9=
EXTT10=
EXTT11=
EXTT12=
EXTT13=
EXTT14=
EXTT15=
EXTT16=
EXTT17=
EXTT18=
EXTT19=
PLAYORDER=
